<svg width="24" height="24" viewBox="0 0 24 24" fill="none" xmlns="http://www.w3.org/2000/svg">
	<path d="M7.14851 16.2656H5.24002V21.4286H1.71436V6.80356H7.46994C9.20428 6.80356 10.5604 7.1886 11.538 7.9587C12.5157 8.72878 13.0045 9.81695 13.0045 11.2232C13.0045 12.241 12.797 13.0848 12.3818 13.7545C11.9733 14.4241 11.3304 14.9665 10.4532 15.3817L13.5068 21.2779V21.4286H9.72996L7.14851 16.2656ZM5.24002 13.5435H7.46994C8.13958 13.5435 8.64181 13.3694 8.97664 13.0212C9.31819 12.6662 9.48893 12.1741 9.48893 11.5447C9.48893 10.9152 9.31819 10.423 8.97664 10.0681C8.63512 9.70646 8.13288 9.52566 7.46994 9.52566H5.24002V13.5435Z" fill="#3B82F6"/>
	<path fill-rule="evenodd" clip-rule="evenodd" d="M14.7521 21.4286C16.6844 21.4286 18.5375 20.6836 19.9039 19.3574C21.2703 18.0313 22.0378 16.2326 22.0378 14.3572C22.0378 12.4066 20.6754 10.9346 19.0847 9.21623L19.0835 9.21498C17.4882 7.49221 15.6626 5.5207 14.7521 2.57144C14.7521 2.57144 13.0575 4.13019 11.3027 6.31452C11.63 6.47075 11.9252 6.65161 12.1807 6.85716C13.2466 7.71468 14.3236 9.00001 14.3236 11.1429C14.3236 12.4286 13.9277 13.3901 13.5513 14.1429C13.1749 14.8957 12.4285 15.4286 11.7521 15.8572L14.7235 21.4285C14.7331 21.4286 14.7426 21.4286 14.7521 21.4286Z" fill="#3B82F6"/>
</svg>
